<svg xmlns="http://www.w3.org/2000/svg" viewBox="0 0 284.91 101.67"><defs><style>.cls-1{fill:#606161;}</style></defs><title>Asset 2</title><g id="Layer_2" data-name="Layer 2"><g id="Layer_1-2" data-name="Layer 1"><path class="cls-1" d="M57.84,1.62a1.19,1.19,0,0,1,.81.24A5.49,5.49,0,0,1,60.9,4.14a5.28,5.28,0,0,1,.63,2.91A4.27,4.27,0,0,1,60.3,9.69,5.12,5.12,0,0,1,57,11.1a21.56,21.56,0,0,1-6.87-.27A60.47,60.47,0,0,1,43,8.94q-3.66-1.2-7.5-2.64T27.6,3.78a57.06,57.06,0,0,0-8.28-1.56,33.74,33.74,0,0,0-8.73.18A9.64,9.64,0,0,0,5.34,5,12.23,12.23,0,0,0,2.28,9.87a20.09,20.09,0,0,0-1,6.33,24.29,24.29,0,0,0,.87,6.69A22.83,22.83,0,0,0,4.77,29a14.22,14.22,0,0,0,4.32,4.47,9.61,9.61,0,0,0,4.29,1.38,10.65,10.65,0,0,0,8.28-2.94,9,9,0,0,0,2.43-4q.06-.18.48-.24t.42.24a7.48,7.48,0,0,1-2.13,4.26,12.58,12.58,0,0,1-4.11,2.79,13,13,0,0,1-4.8,1,7.48,7.48,0,0,1-4.14-1,19.49,19.49,0,0,1-5.67-5.4,22.55,22.55,0,0,1-3.27-7A24.39,24.39,0,0,1,0,15,20.57,20.57,0,0,1,1.65,7.8,11.6,11.6,0,0,1,5.28,3,13.89,13.89,0,0,1,10.56.57,23.44,23.44,0,0,1,16.92,0a44,44,0,0,1,6.9.87,62.54,62.54,0,0,1,6.9,1.83Q34.11,3.84,37.11,5A87.83,87.83,0,0,0,47.85,8.52a34,34,0,0,0,7.92,1.2q3.18,0,4.41-1.23t0-3.75a4.66,4.66,0,0,0-.87-1.38,12.46,12.46,0,0,0-1.17-1.08Q57.51,1.68,57.84,1.62ZM42.63,9.24a1,1,0,0,1,.48.42,1.27,1.27,0,0,1,.15.75,1.49,1.49,0,0,1-.39.87q-.36.48-1.32,1.65t-2.1,2.82q-1.14,1.65-2.34,3.63a29.22,29.22,0,0,0-2,4q-.24.6-.15.72a1.6,1.6,0,0,0,.75.24,25,25,0,0,0,3.27.3q1.83.06,3.63.06t3.3,0l2.28,0q.9,0,.84.24t-.9.36a12.33,12.33,0,0,1-2.52.36q-1.74.12-3.75.15l-3.93.06q-1.92,0-3.06.09a1.41,1.41,0,0,0-1,.27,1.92,1.92,0,0,0-.48.93q-.72,1.86-1.47,4T30.6,35.37q-.57,2.13-.9,4.14a15.49,15.49,0,0,0-.21,3.63.69.69,0,0,0,.12.48,2.25,2.25,0,0,0,.24.21.83.83,0,0,1,.21.24,1,1,0,0,1,0,.57A2.2,2.2,0,0,1,29,46.2q-.72.3-.84-1a12.89,12.89,0,0,1,.09-3.33q.27-2.19.78-4.8t1.23-5.25q.72-2.64,1.5-4.74.24-.66-.24-.9a2.25,2.25,0,0,0-1-.24,2.29,2.29,0,0,0-.66.09,4.86,4.86,0,0,0-.51.18.48.48,0,0,1-.3.06q-.09,0,0-.27a1.42,1.42,0,0,1,.78-1,8.08,8.08,0,0,1,2-.66,4.83,4.83,0,0,0,1-.36,2.13,2.13,0,0,0,.69-1q1-1.92,2.19-4.14t2.61-4.5q.6-.84.06-.78A5.15,5.15,0,0,0,37,14a1.27,1.27,0,0,1-.6.15q-.18,0-.18-.15a.65.65,0,0,1,.12-.36.58.58,0,0,1,.36-.24,12.56,12.56,0,0,0,3-2l2.28-2A.64.64,0,0,1,42.63,9.24Z"/><path class="cls-1" d="M61.74,40.38q-1.47,1.14-3.24,2.37t-3.57,2.31a31.94,31.94,0,0,1-3.12,1.68,2.52,2.52,0,0,1-1.11,0,4.21,4.21,0,0,1-1.5-.57A4.68,4.68,0,0,1,47.88,45a2.94,2.94,0,0,1-.57-1.83,8.75,8.75,0,0,1,.48-2.49q.48-1.53,1.2-3.24t1.56-3.48q.84-1.77,1.56-3.24t1.2-2.52a11.73,11.73,0,0,0,.54-1.29,1.23,1.23,0,0,1,.72-1,1.53,1.53,0,0,1,1.14-.09,1.27,1.27,0,0,1,.78.84,2.27,2.27,0,0,1-.3,1.74L53,34.29q-1.11,2.07-1.59,3t-.57,1.17q-.09.21-.15.39t-.27.66q-.21.48-.93,2a6.5,6.5,0,0,0-.75,2.31A1.39,1.39,0,0,0,49.17,45a1.44,1.44,0,0,0,1,.33,8.27,8.27,0,0,0,1.23-.15A11.61,11.61,0,0,0,54.3,44q1.71-.9,3.51-2t3.36-2.28a27.57,27.57,0,0,0,2.4-1.92,2.3,2.3,0,0,1,.78-.6q.24-.06.27.12a1,1,0,0,1-.15.54,2.07,2.07,0,0,1-.54.66A24.44,24.44,0,0,1,61.74,40.38ZM58.47,22.32q-1.32,1.26-2.22,1.08-1.32-.24-1.32-1a3.78,3.78,0,0,1,1.38-2.22,5.25,5.25,0,0,1,2.22-1.62,1.4,1.4,0,0,1,1.23.39A1,1,0,0,1,60.15,20,4.6,4.6,0,0,1,58.47,22.32Z"/><path class="cls-1" d="M57.39,44.64q-.24-.24.12-1a70.51,70.51,0,0,1,4.68-8q1.56-2.4,2.94-4.29t2.58-3.33a1.31,1.31,0,0,1,.51-.48,3.44,3.44,0,0,1,1-.3q.36-.06.42,0a.58.58,0,0,1-.18.42A44.23,44.23,0,0,0,65.52,33a41.41,41.41,0,0,0-2.85,5.31,1.21,1.21,0,0,0-.24.78q0,.66.48.66a1,1,0,0,0,.72-.42q1.68-1.62,3.51-3.21t3.75-3.15A31.79,31.79,0,0,1,77,28.74a5.13,5.13,0,0,1,1.5-1,2.56,2.56,0,0,1,2.1-.24q.84.3-.06,1.38a68.52,68.52,0,0,0-7.68,12.6q-3.3,7.08-3.54,11.28a5.34,5.34,0,0,0,1.14,4.26,4.35,4.35,0,0,0,3.3,1.32,5.9,5.9,0,0,0,1.74-.24q3.42-1,8.58-5.34,5.7-4.86,5.7-7.8a1.19,1.19,0,0,0-.27-.87,1.34,1.34,0,0,0-.63-.36,2.74,2.74,0,0,0-.66-.09q-.24,0-.24-.18,0-.36.51-.6a2.21,2.21,0,0,1,.93-.24q1,0,1,1.38A5.83,5.83,0,0,1,90,45.78a13,13,0,0,1-1.92,3.66,33.08,33.08,0,0,1-3.48,4q-5.76,5.7-12.48,6.42a4.66,4.66,0,0,1-4-1.32q-1.68-1.8-1.38-5.64.36-4.32,3.78-10.86Q72,39.3,73.5,36.75t3.27-4.95a1,1,0,0,0,.18-.6q0-1-1.08-1a1.8,1.8,0,0,0-1,.3,58.73,58.73,0,0,0-6.81,5.64,101,101,0,0,0-6.93,7.38q-.6.78-3.06,1.32Q57.45,45,57.39,44.64Z"/><path class="cls-1" d="M105.3,29.43a7,7,0,0,1-3,1.17,22.78,22.78,0,0,1-3,.24L94.83,31Q92.43,31,90,31h-4.2q-.66.9-1.41,2A24.7,24.7,0,0,0,83,35.4,20.21,20.21,0,0,0,81.87,38a9.46,9.46,0,0,0-.54,2.79A5.31,5.31,0,0,0,81.6,43a3,3,0,0,0,.9,1.29,3.07,3.07,0,0,0,1.32.6,5.58,5.58,0,0,0,1.53.09,21.28,21.28,0,0,0,4.23-1.14,28.67,28.67,0,0,0,3.87-1.74q.48-.3.72-.09t-.24.51q-.66.48-1.56,1.05a22.55,22.55,0,0,1-2,1.11q-1.08.54-2.25,1a11.6,11.6,0,0,1-2.25.63,3.67,3.67,0,0,1-2-.21,6.24,6.24,0,0,1-2-1.17,7,7,0,0,1-1.5-1.83,4,4,0,0,1-.54-2.25,16.72,16.72,0,0,1,1.83-6.6,31.9,31.9,0,0,1,4-6.15,33.93,33.93,0,0,1,5-4.92,19.6,19.6,0,0,1,4.71-2.91,2.64,2.64,0,0,1,2,.09,3.33,3.33,0,0,1,1.41,1.32,4.55,4.55,0,0,1,.6,1.95,3.23,3.23,0,0,1-.45,2,6.94,6.94,0,0,1-3.24,2.82A19,19,0,0,1,90.45,30h3.3q1.74,0,3.3,0t2.91-.09q1.35-.06,2.31-.18a7.06,7.06,0,0,0,2.55-.78,9.19,9.19,0,0,0,2-1.32q.3-.42.51-.3t-.09.54A11.73,11.73,0,0,1,105.3,29.43Zm-7-6.09a1.4,1.4,0,0,0-.3-1.11,1.28,1.28,0,0,0-1-.36,3.83,3.83,0,0,0-1.59.51,25.48,25.48,0,0,0-4.5,3.33Q88.53,27.78,86.49,30a15.46,15.46,0,0,0,3.24-.36,15.21,15.21,0,0,0,3.18-1.05A15.76,15.76,0,0,0,95.64,27a7.93,7.93,0,0,0,2-2A3.93,3.93,0,0,0,98.25,23.34Z"/><path class="cls-1" d="M109.05,43.26q-5.76-3.42-5.76-8.94,0-6.54,7.74-14.4a70.21,70.21,0,0,1,16.8-12.3q9.54-5.16,16-5.94A29.32,29.32,0,0,1,147,1.5q4.56,0,6.54,1.8l.78-.78q.06-.3.42-.18a.37.37,0,0,1,.3.42,4,4,0,0,1-.78,1.14,5.42,5.42,0,0,1,.84,3.42,12.4,12.4,0,0,1-.78,4.41,14.72,14.72,0,0,1-2.94,4.47,20.53,20.53,0,0,1-5.88,4.92,3.9,3.9,0,0,1-1,0q-1-.18-1-.42,0-3.36,3.42-8.76a43.68,43.68,0,0,1,5.16-7q-1.08-2.4-5.94-2.4-.66,0-1.41.06t-1.59.18q-10.14,1.92-22,10.74Q108.63,23,105.87,32.1a10.45,10.45,0,0,0-.42,2.94,8.52,8.52,0,0,0,3.78,7.2q4.44,3.18,12.36,3a48.4,48.4,0,0,0,9.27-1.17,63.91,63.91,0,0,0,9.57-3,63.69,63.69,0,0,0,8.1-4A38.54,38.54,0,0,0,155,32.4a1,1,0,0,1,.66-.42q.24,0,.24.3t-.42.66a44.84,44.84,0,0,1-14.88,9.54,58.23,58.23,0,0,1-9.78,3.15,38,38,0,0,1-9.24.93A24.11,24.11,0,0,1,109.05,43.26ZM145.23,20a.45.45,0,0,0,.54,0,17.11,17.11,0,0,0,6.54-7.68,15,15,0,0,0,.57-1.86,8.16,8.16,0,0,0,.21-1.86,5.3,5.3,0,0,0-.6-2.7,27.94,27.94,0,0,0-2.28,2.76A27.62,27.62,0,0,0,148,12.36a33.26,33.26,0,0,0-2.88,7.14Q145,19.92,145.23,20Z"/><path class="cls-1" d="M150.57,47.25a2.77,2.77,0,0,1-.87-.45,2.83,2.83,0,0,1-.66-.72,1.63,1.63,0,0,1-.27-.9q.12-5,8-14.7.24-.42-.12-.54a10.83,10.83,0,0,1-1.08-.69q-.54-.39-.54-.75a1,1,0,0,1,.18-.48q.18-.3,1.56-.36l2.28-.06a1.48,1.48,0,0,0,.66-.24A4.16,4.16,0,0,1,162.39,26a5,5,0,0,1,2.7,1.08l.21.12.21.12,3.33.12,4.47.12q.9.12.9.24,0,.36-.9.36-1.86,0-2.4.72a.3.3,0,0,0,0,.36l.12.36a1,1,0,0,1,.06.3,10.33,10.33,0,0,1-2,4.89,29.74,29.74,0,0,1-5.37,5.67q-7,6.06-12.3,6.84A2,2,0,0,1,150.57,47.25Zm-.3-1.77q0,1.44,1.92,1.08,4.08-.66,9.78-5.88,6-5.34,6.9-9.72.42-1.8-2.28-2.1a11.14,11.14,0,0,0-2.7,0,9.54,9.54,0,0,0-2.34.57q-.12-.06-1,.54a40.5,40.5,0,0,0-9.9,14.22A2.74,2.74,0,0,0,150.27,45.48Z"/><path class="cls-1" d="M167.25,44.64q-.24-.24.12-1a70.51,70.51,0,0,1,4.68-8q1.56-2.4,2.94-4.29t2.58-3.33a1.31,1.31,0,0,1,.51-.48,3.44,3.44,0,0,1,1-.3q.36-.06.42,0a.58.58,0,0,1-.18.42A44.23,44.23,0,0,0,175.38,33a41.41,41.41,0,0,0-2.85,5.31,1.21,1.21,0,0,0-.24.78q0,.66.48.66a1,1,0,0,0,.72-.42q1.68-1.62,3.51-3.21t3.75-3.15a31.79,31.79,0,0,1,6.06-4.2,5.13,5.13,0,0,1,1.5-1,2.56,2.56,0,0,1,2.1-.24q.84.3-.06,1.38a68.52,68.52,0,0,0-7.68,12.6q-3.3,7.08-3.54,11.28a5.34,5.34,0,0,0,1.14,4.26,4.35,4.35,0,0,0,3.3,1.32,5.9,5.9,0,0,0,1.74-.24q3.42-1,8.58-5.34,5.7-4.86,5.7-7.8a1.19,1.19,0,0,0-.27-.87,1.34,1.34,0,0,0-.63-.36,2.74,2.74,0,0,0-.66-.09q-.24,0-.24-.18,0-.36.51-.6a2.21,2.21,0,0,1,.93-.24q1,0,1,1.38a5.83,5.83,0,0,1-.36,1.74A13,13,0,0,1,198,49.44a33.08,33.08,0,0,1-3.48,4q-5.76,5.7-12.48,6.42a4.66,4.66,0,0,1-4-1.32q-1.68-1.8-1.38-5.64.36-4.32,3.78-10.86,1.38-2.76,2.91-5.31t3.27-4.95a1,1,0,0,0,.18-.6q0-1-1.08-1a1.8,1.8,0,0,0-1,.3A58.73,58.73,0,0,0,178,36.18,101,101,0,0,0,171,43.56q-.6.78-3.06,1.32Q167.31,45,167.25,44.64Z"/><path class="cls-1" d="M208.59,35.82a69.48,69.48,0,0,1,9.06-2.22l.06.06a48.89,48.89,0,0,0-8.61,2.61,73.52,73.52,0,0,0-9.21,4.53A10.36,10.36,0,0,1,201,42.51a2.94,2.94,0,0,1,.33,1.11q0,1.68-4,3.36a14.26,14.26,0,0,1-5.46,1.5,4,4,0,0,1-1.26-.18c-.56.08-1,.16-1.35.24a1.37,1.37,0,0,1-.81,0q-.78-.06-.36-.78,1-1.26,8.1-6.18L194.31,39a7.21,7.21,0,0,1-1-1.62,6.5,6.5,0,0,1-.45-1.62q-.5-4,8.16-9.06a40.06,40.06,0,0,1,8.13-3.81,22.08,22.08,0,0,1,7.17-1.17.86.86,0,0,1,.66.36q.24.54,0,.78a4.8,4.8,0,0,1-1.35,1.2q-.93.6-1.35.48a16.77,16.77,0,0,0-2.34-.66,9,9,0,0,0-1.62-.18q-.36,0-.69,0a6,6,0,0,0-.63.09,24.57,24.57,0,0,0-7.92,4q-5.7,3.9-5.28,6.84a8.84,8.84,0,0,0,1.32,3.06,7.52,7.52,0,0,0,2,2.22A51.31,51.31,0,0,1,208.59,35.82Zm-17.16,12a7.79,7.79,0,0,0,3.66-.66q1.2-.48,2-.84a2.47,2.47,0,0,0,1.11-.84,1,1,0,0,0,.24-.66,3.39,3.39,0,0,0-1.38-2.22q-1,.6-2.94,2-1.2.84-1.92,1.44a4.9,4.9,0,0,0-1,1.08Q190.71,47.7,191.43,47.82Z"/><path class="cls-1" d="M228.6,40.38q-1.47,1.14-3.24,2.37t-3.57,2.31a33.14,33.14,0,0,1-3.12,1.68,2.52,2.52,0,0,1-1.11,0,4.21,4.21,0,0,1-1.5-.57,4.68,4.68,0,0,1-1.32-1.2,2.94,2.94,0,0,1-.57-1.83,8.75,8.75,0,0,1,.48-2.49q.48-1.53,1.2-3.24t1.56-3.48q.84-1.77,1.56-3.24t1.2-2.52a11.73,11.73,0,0,0,.54-1.29,1.23,1.23,0,0,1,.72-1,1.53,1.53,0,0,1,1.14-.09,1.27,1.27,0,0,1,.78.84,2.27,2.27,0,0,1-.3,1.74l-3.15,5.91q-1.11,2.07-1.59,3t-.57,1.17q-.09.21-.15.39t-.27.66q-.21.48-.93,2a6.5,6.5,0,0,0-.75,2.31A1.39,1.39,0,0,0,216,45a1.44,1.44,0,0,0,1.05.33,8.27,8.27,0,0,0,1.23-.15A11.61,11.61,0,0,0,221.16,44q1.71-.9,3.51-2T228,39.72a27.57,27.57,0,0,0,2.4-1.92,2.3,2.3,0,0,1,.78-.6q.24-.06.27.12a1,1,0,0,1-.15.54,2.07,2.07,0,0,1-.54.66A24.44,24.44,0,0,1,228.6,40.38Zm-3.27-18.06q-1.32,1.26-2.22,1.08-1.32-.24-1.32-1a3.78,3.78,0,0,1,1.38-2.22,5.25,5.25,0,0,1,2.22-1.62,1.4,1.4,0,0,1,1.23.39A1,1,0,0,1,227,20,4.6,4.6,0,0,1,225.33,22.32Z"/><path class="cls-1" d="M250.83,29.22a1.77,1.77,0,0,1,.87.54,1.3,1.3,0,0,1,.39.9,3.32,3.32,0,0,1-.66,1.44l-2.31,7q-1.35,4.08-3.21,9.48a100,100,0,0,1,17.34-1.62q1.5,0,2.61.09t1.95.21a4,4,0,0,1,1.35.54,5.68,5.68,0,0,1,1.26,1.05,6,6,0,0,1,.93,1.35,3.31,3.31,0,0,1,.36,1.5,2.91,2.91,0,0,1-.3,1.32,15,15,0,0,1-3.9,4,1.53,1.53,0,0,1-.9.48q-.12,0-.12-.06,0-.36.6-.78,3.54-3.3,3.54-5.94,0-2.16-2.94-2.4-.84-.06-1.95-.09t-2.49,0q-5.46,0-9.87.33a55.1,55.1,0,0,0-7.89,1.11q-17.7,50.46-42.9,52.08a22.79,22.79,0,0,1-15.84-5.22q-7.26-5.7-7.26-12.78a11.53,11.53,0,0,1,1-4.5Q185,68.4,209.19,58.86a187.75,187.75,0,0,1,34.44-10,78.45,78.45,0,0,0,3.24-9.78q.3-1,.51-1.89t.45-1.59A32.06,32.06,0,0,1,245,38q-1.83,1.35-4.53,3.27-3.42,2.4-5.94,3.93a40.41,40.41,0,0,1-4.26,2.31,3.25,3.25,0,0,1-1.14.18A1.91,1.91,0,0,1,227,45.48a4,4,0,0,1,.54-1.86q2.82-5.76,9.84-10.2t13.14-4.32A.49.49,0,0,1,250.83,29.22ZM181.17,84.6q0,6.36,6.3,11.22a22.37,22.37,0,0,0,15,4.74Q217,100,230.07,78.84a132.11,132.11,0,0,0,7.35-13.74,139.12,139.12,0,0,0,6-15.3,183.29,183.29,0,0,0-37.92,11.94q-19.62,9.12-23.58,19A10.87,10.87,0,0,0,181.17,84.6Zm67.32-52.5a.05.05,0,0,0-.06-.06V32a.35.35,0,0,1,.06-.24q0-1.08-.42-1.14a5.84,5.84,0,0,0-2.76.3,23,23,0,0,0-8.7,4.32q-4.56,3.6-5.82,7.32-.06.3-.09.48a3,3,0,0,0,0,.48q0,1.92,1.44,1.92,1.26,0,7.38-4.38,2.46-1.74,4.29-3.15t3-2.49A4.38,4.38,0,0,0,248.49,32.1Z"/><path class="cls-1" d="M251.91,44.64q-.24-.24.12-1a69,69,0,0,1,4.68-8c1-1.6,2-3,2.94-4.29s1.77-2.37,2.58-3.33a1.25,1.25,0,0,1,.51-.48,3.44,3.44,0,0,1,1-.3q.36-.06.42,0a.58.58,0,0,1-.18.42A42.15,42.15,0,0,0,260,33a40.2,40.2,0,0,0-2.85,5.31,1.21,1.21,0,0,0-.24.78c0,.44.15.66.48.66a1,1,0,0,0,.72-.42q1.67-1.62,3.51-3.21t3.75-3.15c3-2.4,5-3.8,6.06-4.2a5,5,0,0,1,1.5-1,2.56,2.56,0,0,1,2.1-.24c.56.2.54.66-.07,1.38a69.05,69.05,0,0,0-7.67,12.6c-2.2,4.72-3.39,8.48-3.54,11.28a5.3,5.3,0,0,0,1.14,4.26,4.35,4.35,0,0,0,3.3,1.32,6,6,0,0,0,1.74-.24q3.42-1,8.57-5.34,5.7-4.86,5.71-7.8a1.19,1.19,0,0,0-.27-.87,1.38,1.38,0,0,0-.63-.36,2.8,2.8,0,0,0-.66-.09q-.24,0-.24-.18,0-.36.51-.6a2.18,2.18,0,0,1,.93-.24q1,0,1,1.38a5.59,5.59,0,0,1-.37,1.74,12.91,12.91,0,0,1-1.91,3.66,34,34,0,0,1-3.48,4q-5.76,5.7-12.48,6.42a4.66,4.66,0,0,1-4-1.32q-1.68-1.8-1.38-5.64.36-4.32,3.78-10.86,1.38-2.76,2.91-5.31t3.27-4.95a1,1,0,0,0,.18-.6q0-1-1.08-1a1.77,1.77,0,0,0-1,.3,58.73,58.73,0,0,0-6.81,5.64,98.92,98.92,0,0,0-6.93,7.38c-.4.52-1.43,1-3.06,1.32Q252,45,251.91,44.64Z"/></g></g></svg>