<?xml version="1.0" encoding="utf-8"?>
<!-- Generator: Adobe Illustrator 23.0.3, SVG Export Plug-In . SVG Version: 6.00 Build 0)  -->
<svg version="1.1" id="Layer_1" xmlns="http://www.w3.org/2000/svg" xmlns:xlink="http://www.w3.org/1999/xlink" x="0px" y="0px"
	 viewBox="0 0 595.28 841.89" style="enable-background:new 0 0 595.28 841.89;" xml:space="preserve">
<style type="text/css">
	.st0{fill:#6C8765;stroke:#4C5B48;stroke-miterlimit:10;}
</style>
<g>
	<path class="st0" d="M206.59,119.3c0.22-0.04,0.49,0.04,0.81,0.24c1,0.56,1.75,1.32,2.25,2.28c0.5,0.96,0.71,1.93,0.63,2.91
		c-0.08,0.98-0.49,1.86-1.23,2.64c-0.74,0.78-1.83,1.25-3.27,1.41c-2.24,0.28-4.53,0.19-6.87-0.27c-2.34-0.46-4.73-1.09-7.17-1.89
		c-2.44-0.8-4.94-1.68-7.5-2.64c-2.56-0.96-5.19-1.8-7.89-2.52c-2.7-0.72-5.46-1.24-8.28-1.56c-2.82-0.32-5.73-0.26-8.73,0.18
		c-2.12,0.36-3.87,1.21-5.25,2.55c-1.38,1.34-2.4,2.98-3.06,4.92c-0.66,1.94-1,4.05-1.02,6.33c-0.02,2.28,0.27,4.51,0.87,6.69
		c0.6,2.18,1.48,4.2,2.64,6.06c1.16,1.86,2.6,3.35,4.32,4.47c1.32,0.8,2.75,1.26,4.29,1.38c1.54,0.12,3.02-0.07,4.44-0.57
		c1.42-0.5,2.7-1.29,3.84-2.37c1.14-1.08,1.95-2.42,2.43-4.02c0.04-0.12,0.2-0.2,0.48-0.24c0.28-0.04,0.42,0.04,0.42,0.24
		c-0.24,1.64-0.95,3.06-2.13,4.26c-1.18,1.2-2.55,2.13-4.11,2.79c-1.56,0.66-3.16,1.01-4.8,1.05c-1.64,0.04-3.02-0.28-4.14-0.96
		c-2.28-1.44-4.17-3.24-5.67-5.4c-1.5-2.16-2.59-4.49-3.27-6.99c-0.68-2.5-0.96-5.03-0.84-7.59c0.12-2.56,0.66-4.96,1.62-7.2
		c0.88-2.04,2.09-3.64,3.63-4.8c1.54-1.16,3.3-1.97,5.28-2.43c1.98-0.46,4.1-0.64,6.36-0.54c2.26,0.1,4.56,0.39,6.9,0.87
		c2.34,0.48,4.64,1.09,6.9,1.83c2.26,0.74,4.39,1.49,6.39,2.25c3.96,1.56,7.54,2.74,10.74,3.54c3.2,0.8,5.84,1.2,7.92,1.2
		c2.12,0,3.59-0.41,4.41-1.23c0.82-0.82,0.83-2.07,0.03-3.75c-0.24-0.56-0.53-1.02-0.87-1.38c-0.34-0.36-0.73-0.72-1.17-1.08
		C206.48,119.56,206.37,119.34,206.59,119.3z M191.38,126.92c0.2,0.08,0.36,0.22,0.48,0.42c0.12,0.2,0.17,0.45,0.15,0.75
		c-0.02,0.3-0.15,0.59-0.39,0.87c-0.24,0.32-0.68,0.87-1.32,1.65c-0.64,0.78-1.34,1.72-2.1,2.82c-0.76,1.1-1.54,2.31-2.34,3.63
		c-0.8,1.32-1.48,2.66-2.04,4.02c-0.16,0.4-0.21,0.64-0.15,0.72c0.06,0.08,0.31,0.16,0.75,0.24c0.96,0.16,2.05,0.26,3.27,0.3
		c1.22,0.04,2.43,0.06,3.63,0.06c1.2,0,2.3-0.01,3.3-0.03c1-0.02,1.76-0.03,2.28-0.03c0.6,0,0.88,0.08,0.84,0.24
		c-0.04,0.16-0.34,0.28-0.9,0.36c-0.52,0.16-1.36,0.28-2.52,0.36c-1.16,0.08-2.41,0.13-3.75,0.15c-1.34,0.02-2.65,0.04-3.93,0.06
		c-1.28,0.02-2.3,0.05-3.06,0.09c-0.44,0-0.76,0.09-0.96,0.27c-0.2,0.18-0.36,0.49-0.48,0.93c-0.48,1.24-0.97,2.57-1.47,3.99
		c-0.5,1.42-0.94,2.84-1.32,4.26c-0.38,1.42-0.68,2.8-0.9,4.14c-0.22,1.34-0.29,2.55-0.21,3.63c0,0.24,0.04,0.4,0.12,0.48
		c0.08,0.08,0.16,0.15,0.24,0.21c0.08,0.06,0.15,0.14,0.21,0.24c0.06,0.1,0.07,0.29,0.03,0.57c-0.24,0.84-0.6,1.36-1.08,1.56
		c-0.48,0.2-0.76-0.12-0.84-0.96c-0.12-0.76-0.09-1.87,0.09-3.33c0.18-1.46,0.44-3.06,0.78-4.8c0.34-1.74,0.75-3.49,1.23-5.25
		c0.48-1.76,0.98-3.34,1.5-4.74c0.16-0.44,0.08-0.74-0.24-0.9c-0.32-0.16-0.66-0.24-1.02-0.24c-0.24,0-0.46,0.03-0.66,0.09
		c-0.2,0.06-0.37,0.12-0.51,0.18c-0.14,0.06-0.24,0.08-0.3,0.06c-0.06-0.02-0.07-0.11-0.03-0.27c0.08-0.44,0.34-0.78,0.78-1.02
		c0.44-0.24,1.12-0.46,2.04-0.66c0.44-0.12,0.77-0.24,0.99-0.36c0.22-0.12,0.45-0.46,0.69-1.02c0.64-1.28,1.37-2.66,2.19-4.14
		c0.82-1.48,1.69-2.98,2.61-4.5c0.4-0.56,0.42-0.82,0.06-0.78c-0.36,0.04-0.82,0.18-1.38,0.42c-0.28,0.12-0.48,0.17-0.6,0.15
		c-0.12-0.02-0.18-0.07-0.18-0.15c0-0.12,0.04-0.24,0.12-0.36c0.08-0.12,0.2-0.2,0.36-0.24c1.04-0.48,2.04-1.14,3-1.98
		s1.72-1.5,2.28-1.98C190.96,126.9,191.18,126.84,191.38,126.92z"/>
	<path class="st0" d="M210.49,158.06c-0.98,0.76-2.06,1.55-3.24,2.37c-1.18,0.82-2.37,1.59-3.57,2.31c-1.2,0.72-2.24,1.28-3.12,1.68
		c-0.24,0.08-0.61,0.08-1.11,0c-0.5-0.08-1-0.27-1.5-0.57c-0.5-0.3-0.94-0.7-1.32-1.2c-0.38-0.5-0.57-1.11-0.57-1.83
		c0-0.64,0.16-1.47,0.48-2.49c0.32-1.02,0.72-2.1,1.2-3.24c0.48-1.14,1-2.3,1.56-3.48c0.56-1.18,1.08-2.26,1.56-3.24
		c0.48-0.98,0.88-1.82,1.2-2.52c0.32-0.7,0.5-1.13,0.54-1.29c0.08-0.48,0.32-0.81,0.72-0.99c0.4-0.18,0.78-0.21,1.14-0.09
		s0.62,0.4,0.78,0.84c0.16,0.44,0.06,1.02-0.3,1.74c-1.36,2.56-2.41,4.53-3.15,5.91c-0.74,1.38-1.27,2.39-1.59,3.03
		c-0.32,0.64-0.51,1.03-0.57,1.17c-0.06,0.14-0.11,0.27-0.15,0.39c-0.04,0.12-0.13,0.34-0.27,0.66c-0.14,0.32-0.45,0.98-0.93,1.98
		c-0.48,1-0.73,1.77-0.75,2.31c-0.02,0.54,0.11,0.93,0.39,1.17c0.28,0.24,0.63,0.35,1.05,0.33c0.42-0.02,0.83-0.07,1.23-0.15
		c0.76-0.16,1.71-0.54,2.85-1.14c1.14-0.6,2.31-1.28,3.51-2.04c1.2-0.76,2.32-1.52,3.36-2.28c1.04-0.76,1.84-1.4,2.4-1.92
		c0.36-0.36,0.62-0.56,0.78-0.6c0.16-0.04,0.25,0,0.27,0.12c0.02,0.12-0.03,0.3-0.15,0.54c-0.12,0.24-0.3,0.46-0.54,0.66
		C212.2,156.68,211.47,157.3,210.49,158.06z M207.22,140c-0.88,0.84-1.62,1.2-2.22,1.08c-0.88-0.16-1.32-0.5-1.32-1.02
		c0-0.56,0.46-1.3,1.38-2.22c0.92-0.96,1.66-1.5,2.22-1.62c0.44-0.08,0.85,0.05,1.23,0.39c0.38,0.34,0.51,0.69,0.39,1.05
		C208.78,138.34,208.22,139.12,207.22,140z"/>
	<path class="st0" d="M206.14,162.32c-0.16-0.16-0.12-0.48,0.12-0.96c0.92-1.96,2.48-4.62,4.68-7.98c1.04-1.6,2.02-3.03,2.94-4.29
		c0.92-1.26,1.78-2.37,2.58-3.33c0.12-0.2,0.29-0.36,0.51-0.48c0.22-0.12,0.55-0.22,0.99-0.3c0.24-0.04,0.38-0.04,0.42,0
		c0,0.16-0.06,0.3-0.18,0.42c-1.52,1.76-2.83,3.51-3.93,5.25c-1.1,1.74-2.05,3.51-2.85,5.31c-0.16,0.2-0.24,0.46-0.24,0.78
		c0,0.44,0.16,0.66,0.48,0.66c0.24,0,0.48-0.14,0.72-0.42c1.12-1.08,2.29-2.15,3.51-3.21c1.22-1.06,2.47-2.11,3.75-3.15
		c3-2.4,5.02-3.8,6.06-4.2c0.56-0.48,1.06-0.8,1.5-0.96c0.88-0.4,1.58-0.48,2.1-0.24c0.56,0.2,0.54,0.66-0.06,1.38
		c-2.84,3.64-5.4,7.84-7.68,12.6c-2.2,4.72-3.38,8.48-3.54,11.28c-0.16,1.84,0.22,3.26,1.14,4.26c0.84,0.88,1.94,1.32,3.3,1.32
		c0.64,0,1.22-0.08,1.74-0.24c2.28-0.64,5.14-2.42,8.58-5.34c3.8-3.24,5.7-5.84,5.7-7.8c0-0.4-0.09-0.69-0.27-0.87
		c-0.18-0.18-0.39-0.3-0.63-0.36c-0.24-0.06-0.46-0.09-0.66-0.09c-0.16,0-0.24-0.06-0.24-0.18c0-0.24,0.17-0.44,0.51-0.6
		c0.34-0.16,0.65-0.24,0.93-0.24c0.68,0,1.02,0.46,1.02,1.38c0,0.44-0.12,1.02-0.36,1.74c-0.36,1.16-1,2.38-1.92,3.66
		c-0.92,1.28-2.08,2.62-3.48,4.02c-3.84,3.8-8,5.94-12.48,6.42c-1.6,0.16-2.92-0.28-3.96-1.32c-1.12-1.2-1.58-3.08-1.38-5.64
		c0.24-2.88,1.5-6.5,3.78-10.86c0.92-1.84,1.89-3.61,2.91-5.31c1.02-1.7,2.11-3.35,3.27-4.95c0.12-0.16,0.18-0.36,0.18-0.6
		c0-0.64-0.36-0.96-1.08-0.96c-0.32,0-0.64,0.1-0.96,0.3c-2.28,1.6-4.55,3.48-6.81,5.64c-2.26,2.16-4.57,4.62-6.93,7.38
		c-0.4,0.52-1.42,0.96-3.06,1.32C206.42,162.64,206.18,162.56,206.14,162.32z"/>
	<path class="st0" d="M254.05,147.11c-0.9,0.62-1.91,1.01-3.03,1.17c-0.68,0.12-1.69,0.2-3.03,0.24c-1.34,0.04-2.81,0.08-4.41,0.12
		c-1.6,0.04-3.2,0.06-4.8,0.06c-1.6,0-3,0-4.2,0c-0.44,0.6-0.91,1.27-1.41,2.01c-0.5,0.74-0.97,1.53-1.41,2.37
		c-0.44,0.84-0.82,1.71-1.14,2.61c-0.32,0.9-0.5,1.83-0.54,2.79c-0.04,0.88,0.05,1.6,0.27,2.16c0.22,0.56,0.52,0.99,0.9,1.29
		c0.38,0.3,0.82,0.5,1.32,0.6c0.5,0.1,1.01,0.13,1.53,0.09c1.32-0.2,2.73-0.58,4.23-1.14c1.5-0.56,2.79-1.14,3.87-1.74
		c0.32-0.2,0.56-0.23,0.72-0.09c0.16,0.14,0.08,0.31-0.24,0.51c-0.44,0.32-0.96,0.67-1.56,1.05c-0.6,0.38-1.26,0.75-1.98,1.11
		c-0.72,0.36-1.47,0.69-2.25,0.99c-0.78,0.3-1.53,0.51-2.25,0.63c-0.6,0.12-1.26,0.05-1.98-0.21c-0.72-0.26-1.38-0.65-1.98-1.17
		c-0.6-0.52-1.1-1.13-1.5-1.83c-0.4-0.7-0.58-1.45-0.54-2.25c0.12-2.2,0.73-4.4,1.83-6.6c1.1-2.2,2.44-4.25,4.02-6.15
		c1.58-1.9,3.24-3.54,4.98-4.92c1.74-1.38,3.31-2.35,4.71-2.91c0.76-0.24,1.44-0.21,2.04,0.09c0.6,0.3,1.07,0.74,1.41,1.32
		c0.34,0.58,0.54,1.23,0.6,1.95c0.06,0.72-0.09,1.38-0.45,1.98c-0.6,1.12-1.68,2.06-3.24,2.82c-1.56,0.76-3.34,1.3-5.34,1.62
		c1.08,0,2.18,0,3.3,0c1.16,0,2.26-0.01,3.3-0.03c1.04-0.02,2.01-0.05,2.91-0.09c0.9-0.04,1.67-0.1,2.31-0.18
		c0.84-0.08,1.69-0.34,2.55-0.78c0.86-0.44,1.53-0.88,2.01-1.32c0.2-0.28,0.37-0.38,0.51-0.3c0.14,0.08,0.11,0.26-0.09,0.54
		C255.6,145.96,254.95,146.49,254.05,147.11z M247,141.02c0.04-0.48-0.06-0.85-0.3-1.11c-0.24-0.26-0.59-0.38-1.05-0.36
		c-0.46,0.02-0.99,0.19-1.59,0.51c-1.48,0.84-2.98,1.95-4.5,3.33c-1.52,1.38-2.96,2.81-4.32,4.29c1.04,0,2.12-0.12,3.24-0.36
		c1.12-0.24,2.18-0.59,3.18-1.05c1-0.46,1.91-0.99,2.73-1.59c0.82-0.6,1.47-1.26,1.95-1.98C246.74,142.06,246.96,141.5,247,141.02z"
		/>
	<path class="st0" d="M257.8,160.94c-3.84-2.28-5.76-5.26-5.76-8.94c0-4.36,2.58-9.16,7.74-14.4c4.48-4.56,10.08-8.66,16.8-12.3
		c6.36-3.44,11.68-5.42,15.96-5.94c1.08-0.12,2.16-0.18,3.24-0.18c3.04,0,5.22,0.6,6.54,1.8l0.78-0.78c0.04-0.2,0.18-0.26,0.42-0.18
		c0.2,0.04,0.3,0.18,0.3,0.42c0,0.12-0.26,0.5-0.78,1.14c0.56,0.68,0.84,1.82,0.84,3.42c0,1.56-0.26,3.03-0.78,4.41
		c-0.52,1.38-1.5,2.87-2.94,4.47c-1.64,2-3.6,3.64-5.88,4.92c-0.12,0.04-0.46,0.04-1.02,0c-0.64-0.12-0.96-0.26-0.96-0.42
		c0-2.24,1.14-5.16,3.42-8.76c1.72-2.8,3.44-5.12,5.16-6.96c-0.72-1.6-2.7-2.4-5.94-2.4c-0.44,0-0.91,0.02-1.41,0.06
		c-0.5,0.04-1.03,0.1-1.59,0.18c-6.76,1.28-14.1,4.86-22.02,10.74c-8.36,6.32-13.46,12.5-15.3,18.54c-0.28,0.96-0.42,1.94-0.42,2.94
		c0,2.96,1.26,5.36,3.78,7.2c2.96,2.12,7.08,3.12,12.36,3c3.04-0.08,6.13-0.47,9.27-1.17c3.14-0.7,6.33-1.69,9.57-2.97
		c3-1.24,5.7-2.57,8.1-3.99c2.4-1.42,4.54-2.99,6.42-4.71c0.24-0.28,0.46-0.42,0.66-0.42c0.16,0,0.24,0.1,0.24,0.3
		c0,0.16-0.14,0.38-0.42,0.66c-3.64,3.72-8.6,6.9-14.88,9.54c-3.36,1.4-6.62,2.45-9.78,3.15c-3.16,0.7-6.24,1.01-9.24,0.93
		C265.4,164.16,261.24,163.06,257.8,160.94z M293.98,137.72c0.16,0.12,0.34,0.12,0.54,0c3-1.96,5.18-4.52,6.54-7.68
		c0.24-0.64,0.43-1.26,0.57-1.86c0.14-0.6,0.21-1.22,0.21-1.86c0-1.12-0.2-2.02-0.6-2.7c-0.76,0.8-1.52,1.72-2.28,2.76
		c-0.76,1.04-1.5,2.26-2.22,3.66c-1.4,2.68-2.36,5.06-2.88,7.14C293.82,137.46,293.86,137.64,293.98,137.72z"/>
	<path class="st0" d="M299.32,164.93c-0.32-0.1-0.61-0.25-0.87-0.45c-0.26-0.2-0.48-0.44-0.66-0.72c-0.18-0.28-0.27-0.58-0.27-0.9
		c0.08-3.32,2.76-8.22,8.04-14.7c0.16-0.28,0.12-0.46-0.12-0.54c-0.36-0.2-0.72-0.43-1.08-0.69c-0.36-0.26-0.54-0.51-0.54-0.75
		c0-0.12,0.06-0.28,0.18-0.48c0.12-0.2,0.64-0.32,1.56-0.36c1.48-0.04,2.24-0.06,2.28-0.06c0.16,0,0.38-0.08,0.66-0.24
		c0.88-0.84,1.76-1.28,2.64-1.32c0.64-0.04,1.54,0.32,2.7,1.08c0.08,0.04,0.15,0.08,0.21,0.12c0.06,0.04,0.13,0.08,0.21,0.12
		c0.92,0.04,2.03,0.08,3.33,0.12c1.3,0.04,2.79,0.08,4.47,0.12c0.6,0.08,0.9,0.16,0.9,0.24c0,0.24-0.3,0.36-0.9,0.36
		c-1.24,0-2.04,0.24-2.4,0.72c-0.08,0.12-0.08,0.24,0,0.36c0.04,0.12,0.08,0.24,0.12,0.36c0.04,0.12,0.06,0.22,0.06,0.3
		c-0.12,1.52-0.77,3.15-1.95,4.89c-1.18,1.74-2.97,3.63-5.37,5.67c-4.68,4.04-8.78,6.32-12.3,6.84
		C299.94,165.06,299.64,165.03,299.32,164.93z M299.02,163.16c0,0.96,0.64,1.32,1.92,1.08c2.72-0.44,5.98-2.4,9.78-5.88
		c4-3.56,6.3-6.8,6.9-9.72c0.28-1.2-0.48-1.9-2.28-2.1c-0.96-0.12-1.86-0.13-2.7-0.03c-0.84,0.1-1.62,0.29-2.34,0.57
		c-0.08-0.04-0.42,0.14-1.02,0.54c-4.28,3.96-7.58,8.7-9.9,14.22C299.14,162.28,299.02,162.72,299.02,163.16z"/>
	<path class="st0" d="M316,162.32c-0.16-0.16-0.12-0.48,0.12-0.96c0.92-1.96,2.48-4.62,4.68-7.98c1.04-1.6,2.02-3.03,2.94-4.29
		c0.92-1.26,1.78-2.37,2.58-3.33c0.12-0.2,0.29-0.36,0.51-0.48c0.22-0.12,0.55-0.22,0.99-0.3c0.24-0.04,0.38-0.04,0.42,0
		c0,0.16-0.06,0.3-0.18,0.42c-1.52,1.76-2.83,3.51-3.93,5.25c-1.1,1.74-2.05,3.51-2.85,5.31c-0.16,0.2-0.24,0.46-0.24,0.78
		c0,0.44,0.16,0.66,0.48,0.66c0.24,0,0.48-0.14,0.72-0.42c1.12-1.08,2.29-2.15,3.51-3.21c1.22-1.06,2.47-2.11,3.75-3.15
		c3-2.4,5.02-3.8,6.06-4.2c0.56-0.48,1.06-0.8,1.5-0.96c0.88-0.4,1.58-0.48,2.1-0.24c0.56,0.2,0.54,0.66-0.06,1.38
		c-2.84,3.64-5.4,7.84-7.68,12.6c-2.2,4.72-3.38,8.48-3.54,11.28c-0.16,1.84,0.22,3.26,1.14,4.26c0.84,0.88,1.94,1.32,3.3,1.32
		c0.64,0,1.22-0.08,1.74-0.24c2.28-0.64,5.14-2.42,8.58-5.34c3.8-3.24,5.7-5.84,5.7-7.8c0-0.4-0.09-0.69-0.27-0.87
		c-0.18-0.18-0.39-0.3-0.63-0.36c-0.24-0.06-0.46-0.09-0.66-0.09c-0.16,0-0.24-0.06-0.24-0.18c0-0.24,0.17-0.44,0.51-0.6
		c0.34-0.16,0.65-0.24,0.93-0.24c0.68,0,1.02,0.46,1.02,1.38c0,0.44-0.12,1.02-0.36,1.74c-0.36,1.16-1,2.38-1.92,3.66
		c-0.92,1.28-2.08,2.62-3.48,4.02c-3.84,3.8-8,5.94-12.48,6.42c-1.6,0.16-2.92-0.28-3.96-1.32c-1.12-1.2-1.58-3.08-1.38-5.64
		c0.24-2.88,1.5-6.5,3.78-10.86c0.92-1.84,1.89-3.61,2.91-5.31c1.02-1.7,2.11-3.35,3.27-4.95c0.12-0.16,0.18-0.36,0.18-0.6
		c0-0.64-0.36-0.96-1.08-0.96c-0.32,0-0.64,0.1-0.96,0.3c-2.28,1.6-4.55,3.48-6.81,5.64c-2.26,2.16-4.57,4.62-6.93,7.38
		c-0.4,0.52-1.42,0.96-3.06,1.32C316.28,162.64,316.04,162.56,316,162.32z"/>
	<path class="st0" d="M357.34,153.5c3.04-0.96,6.06-1.7,9.06-2.22l0.06,0.06c-2.8,0.56-5.67,1.43-8.61,2.61
		c-2.94,1.18-6.01,2.69-9.21,4.53c0.52,0.68,0.89,1.25,1.11,1.71c0.22,0.46,0.33,0.83,0.33,1.11c0,1.12-1.32,2.24-3.96,3.36
		c-2.24,1-4.06,1.5-5.46,1.5c-0.48,0-0.9-0.06-1.26-0.18c-0.56,0.08-1.01,0.16-1.35,0.24c-0.34,0.08-0.61,0.08-0.81,0
		c-0.52-0.04-0.64-0.3-0.36-0.78c0.68-0.84,3.38-2.9,8.1-6.18l-1.92-2.58c-0.44-0.56-0.77-1.1-0.99-1.62
		c-0.22-0.52-0.37-1.06-0.45-1.62c-0.32-2.68,2.4-5.7,8.16-9.06c2.88-1.72,5.59-2.99,8.13-3.81c2.54-0.82,4.93-1.21,7.17-1.17
		c0.24,0,0.46,0.12,0.66,0.36c0.16,0.36,0.16,0.62,0,0.78c-0.28,0.4-0.73,0.8-1.35,1.2c-0.62,0.4-1.07,0.56-1.35,0.48
		c-0.92-0.32-1.7-0.54-2.34-0.66c-0.64-0.12-1.18-0.18-1.62-0.18c-0.24,0-0.47,0.01-0.69,0.03c-0.22,0.02-0.43,0.05-0.63,0.09
		c-2.28,0.56-4.92,1.9-7.92,4.02c-3.8,2.6-5.56,4.88-5.28,6.84c0.12,0.8,0.56,1.82,1.32,3.06c0.84,1.2,1.52,1.94,2.04,2.22
		C351.16,155.84,354.3,154.46,357.34,153.5z M340.18,165.5c0.72,0.16,1.94-0.06,3.66-0.66c0.8-0.32,1.47-0.6,2.01-0.84
		s0.91-0.52,1.11-0.84c0.16-0.2,0.24-0.42,0.24-0.66c0-0.64-0.46-1.38-1.38-2.22c-0.64,0.4-1.62,1.08-2.94,2.04
		c-0.8,0.56-1.44,1.04-1.92,1.44c-0.48,0.4-0.82,0.76-1.02,1.08C339.62,165.2,339.7,165.42,340.18,165.5z"/>
	<path class="st0" d="M377.35,158.06c-0.98,0.76-2.06,1.55-3.24,2.37c-1.18,0.82-2.37,1.59-3.57,2.31c-1.2,0.72-2.24,1.28-3.12,1.68
		c-0.24,0.08-0.61,0.08-1.11,0c-0.5-0.08-1-0.27-1.5-0.57c-0.5-0.3-0.94-0.7-1.32-1.2c-0.38-0.5-0.57-1.11-0.57-1.83
		c0-0.64,0.16-1.47,0.48-2.49c0.32-1.02,0.72-2.1,1.2-3.24c0.48-1.14,1-2.3,1.56-3.48c0.56-1.18,1.08-2.26,1.56-3.24
		c0.48-0.98,0.88-1.82,1.2-2.52c0.32-0.7,0.5-1.13,0.54-1.29c0.08-0.48,0.32-0.81,0.72-0.99c0.4-0.18,0.78-0.21,1.14-0.09
		c0.36,0.12,0.62,0.4,0.78,0.84c0.16,0.44,0.06,1.02-0.3,1.74c-1.36,2.56-2.41,4.53-3.15,5.91c-0.74,1.38-1.27,2.39-1.59,3.03
		c-0.32,0.64-0.51,1.03-0.57,1.17c-0.06,0.14-0.11,0.27-0.15,0.39c-0.04,0.12-0.13,0.34-0.27,0.66c-0.14,0.32-0.45,0.98-0.93,1.98
		c-0.48,1-0.73,1.77-0.75,2.31c-0.02,0.54,0.11,0.93,0.39,1.17c0.28,0.24,0.63,0.35,1.05,0.33c0.42-0.02,0.83-0.07,1.23-0.15
		c0.76-0.16,1.71-0.54,2.85-1.14c1.14-0.6,2.31-1.28,3.51-2.04c1.2-0.76,2.32-1.52,3.36-2.28c1.04-0.76,1.84-1.4,2.4-1.92
		c0.36-0.36,0.62-0.56,0.78-0.6c0.16-0.04,0.25,0,0.27,0.12s-0.03,0.3-0.15,0.54c-0.12,0.24-0.3,0.46-0.54,0.66
		C379.06,156.68,378.33,157.3,377.35,158.06z M374.08,140c-0.88,0.84-1.62,1.2-2.22,1.08c-0.88-0.16-1.32-0.5-1.32-1.02
		c0-0.56,0.46-1.3,1.38-2.22c0.92-0.96,1.66-1.5,2.22-1.62c0.44-0.08,0.85,0.05,1.23,0.39c0.38,0.34,0.51,0.69,0.39,1.05
		C375.64,138.34,375.08,139.12,374.08,140z"/>
	<path class="st0" d="M399.58,146.9c0.32,0.08,0.61,0.26,0.87,0.54c0.26,0.28,0.39,0.58,0.39,0.9c-0.08,0.48-0.3,0.96-0.66,1.44
		c-0.64,1.92-1.41,4.24-2.31,6.96c-0.9,2.72-1.97,5.88-3.21,9.48c6.12-1.08,11.9-1.62,17.34-1.62c1,0,1.87,0.03,2.61,0.09
		c0.74,0.06,1.39,0.13,1.95,0.21c0.44,0.08,0.89,0.26,1.35,0.54c0.46,0.28,0.88,0.63,1.26,1.05c0.38,0.42,0.69,0.87,0.93,1.35
		c0.24,0.48,0.36,0.98,0.36,1.5c0,0.48-0.1,0.92-0.3,1.32c-0.52,1-1.82,2.32-3.9,3.96c-0.36,0.32-0.66,0.48-0.9,0.48
		c-0.08,0-0.12-0.02-0.12-0.06c0-0.24,0.2-0.5,0.6-0.78c2.36-2.2,3.54-4.18,3.54-5.94c0-1.44-0.98-2.24-2.94-2.4
		c-0.56-0.04-1.21-0.07-1.95-0.09c-0.74-0.02-1.57-0.03-2.49-0.03c-3.64,0-6.93,0.11-9.87,0.33c-2.94,0.22-5.57,0.59-7.89,1.11
		c-11.8,33.64-26.1,51-42.9,52.08c-5.76,0.32-11.04-1.42-15.84-5.22c-4.84-3.8-7.26-8.06-7.26-12.78c0-1.48,0.32-2.98,0.96-4.5
		c3.04-7.16,12.62-13.92,28.74-20.28c10.96-4.36,22.44-7.68,34.44-9.96c0.92-2.08,2-5.34,3.24-9.78c0.2-0.68,0.37-1.31,0.51-1.89
		c0.14-0.58,0.29-1.11,0.45-1.59c-0.68,0.64-1.63,1.41-2.85,2.31c-1.22,0.9-2.73,1.99-4.53,3.27c-2.28,1.6-4.26,2.91-5.94,3.93
		c-1.68,1.02-3.1,1.79-4.26,2.31c-0.32,0.12-0.7,0.18-1.14,0.18c-1.44,0-2.16-0.72-2.16-2.16c0-0.56,0.18-1.18,0.54-1.86
		c1.88-3.84,5.16-7.24,9.84-10.2c4.68-2.92,9.06-4.36,13.14-4.32C399.38,146.78,399.5,146.82,399.58,146.9z M329.92,202.28
		c0,4.24,2.1,7.98,6.3,11.22c4.44,3.4,9.44,4.98,15,4.74c9.68-0.36,18.88-7.6,27.6-21.72c2.68-4.36,5.13-8.94,7.35-13.74
		c2.22-4.8,4.21-9.9,5.97-15.3c-14.44,3.04-27.08,7.02-37.92,11.94c-13.08,6.08-20.94,12.42-23.58,19.02
		C330.16,199.72,329.92,201,329.92,202.28z M397.24,149.78c0-0.04-0.02-0.06-0.06-0.06v-0.06c0-0.12,0.02-0.2,0.06-0.24
		c0-0.72-0.14-1.1-0.42-1.14c-0.44-0.16-1.36-0.06-2.76,0.3c-2.92,0.68-5.82,2.12-8.7,4.32c-3.04,2.4-4.98,4.84-5.82,7.32
		c-0.04,0.2-0.07,0.36-0.09,0.48c-0.02,0.12-0.03,0.28-0.03,0.48c0,1.28,0.48,1.92,1.44,1.92c0.84,0,3.3-1.46,7.38-4.38
		c1.64-1.16,3.07-2.21,4.29-3.15c1.22-0.94,2.23-1.77,3.03-2.49C396.56,152.32,397.12,151.22,397.24,149.78z"/>
	<path class="st0" d="M400.66,162.32c-0.16-0.16-0.12-0.48,0.12-0.96c0.92-1.96,2.48-4.62,4.68-7.98c1.04-1.6,2.02-3.03,2.94-4.29
		c0.92-1.26,1.78-2.37,2.58-3.33c0.12-0.2,0.29-0.36,0.51-0.48c0.22-0.12,0.55-0.22,0.99-0.3c0.24-0.04,0.38-0.04,0.42,0
		c0,0.16-0.06,0.3-0.18,0.42c-1.52,1.76-2.83,3.51-3.93,5.25c-1.1,1.74-2.05,3.51-2.85,5.31c-0.16,0.2-0.24,0.46-0.24,0.78
		c0,0.44,0.16,0.66,0.48,0.66c0.24,0,0.48-0.14,0.72-0.42c1.12-1.08,2.29-2.15,3.51-3.21c1.22-1.06,2.47-2.11,3.75-3.15
		c3-2.4,5.02-3.8,6.06-4.2c0.56-0.48,1.06-0.8,1.5-0.96c0.88-0.4,1.58-0.48,2.1-0.24c0.56,0.2,0.54,0.66-0.06,1.38
		c-2.84,3.64-5.4,7.84-7.68,12.6c-2.2,4.72-3.38,8.48-3.54,11.28c-0.16,1.84,0.22,3.26,1.14,4.26c0.84,0.88,1.94,1.32,3.3,1.32
		c0.64,0,1.22-0.08,1.74-0.24c2.28-0.64,5.14-2.42,8.58-5.34c3.8-3.24,5.7-5.84,5.7-7.8c0-0.4-0.09-0.69-0.27-0.87
		c-0.18-0.18-0.39-0.3-0.63-0.36c-0.24-0.06-0.46-0.09-0.66-0.09c-0.16,0-0.24-0.06-0.24-0.18c0-0.24,0.17-0.44,0.51-0.6
		c0.34-0.16,0.65-0.24,0.93-0.24c0.68,0,1.02,0.46,1.02,1.38c0,0.44-0.12,1.02-0.36,1.74c-0.36,1.16-1,2.38-1.92,3.66
		c-0.92,1.28-2.08,2.62-3.48,4.02c-3.84,3.8-8,5.94-12.48,6.42c-1.6,0.16-2.92-0.28-3.96-1.32c-1.12-1.2-1.58-3.08-1.38-5.64
		c0.24-2.88,1.5-6.5,3.78-10.86c0.92-1.84,1.89-3.61,2.91-5.31c1.02-1.7,2.11-3.35,3.27-4.95c0.12-0.16,0.18-0.36,0.18-0.6
		c0-0.64-0.36-0.96-1.08-0.96c-0.32,0-0.64,0.1-0.96,0.3c-2.28,1.6-4.55,3.48-6.81,5.64c-2.26,2.16-4.57,4.62-6.93,7.38
		c-0.4,0.52-1.42,0.96-3.06,1.32C400.94,162.64,400.7,162.56,400.66,162.32z"/>
</g>
<g>
</g>
<g>
</g>
<g>
</g>
<g>
</g>
<g>
</g>
<g>
</g>
</svg>
